<?xml version="1.0" encoding="UTF-8"?>
<svg xmlns="http://www.w3.org/2000/svg" width="61" height="61" viewBox="0 0 61 61" fill="none">
  <rect width="61" height="61" rx="30.5" fill="white"></rect>
  <path d="M27.7438 35.5466C28.3681 35.9908 29.0554 36.7791 29.0554 37.8747C29.0554 39.2654 28.0546 40.2364 26.6224 40.2364H24.9825C23.6189 40.2364 22.4765 39.2142 22.3253 37.8585L21.6288 31.5892L23.3667 31.3964L24.0631 37.6652C24.1151 38.1339 24.5103 38.4876 24.9825 38.4876H26.6224C27.2253 38.4876 27.3066 38.1781 27.3066 37.8747C27.3066 37.037 26.0025 36.5959 26.0025 36.5959L25.995 31.4926H27.7438V35.5466Z" fill="#002472"></path>
  <path d="M26.8694 33.6785V31.4926H29.4926V32.8041C29.4926 33.2872 29.1013 33.6785 28.6182 33.6785H26.8694Z" fill="#002472"></path>
  <path d="M41.1256 25.8091C41.6083 25.8091 42 26.2008 42 26.6835C42 27.1661 41.6083 27.5579 41.1256 27.5579H38.6736V25.8091H41.1256Z" fill="#002472"></path>
  <path d="M38.7881 24.3646C39.2642 24.7222 39.5479 25.2897 39.5479 25.8843V27.4822C39.5479 28.0768 39.2642 28.6447 38.789 29.0019L37.7209 29.8024C37.3956 30.0463 36.9921 30.181 36.5851 30.181H34.3017V28.4322H36.5851C36.6166 28.4322 36.6467 28.4222 36.6717 28.4034L37.7393 27.6029C37.7764 27.5749 37.7992 27.5299 37.7992 27.4827V25.8847C37.7992 25.8375 37.7764 25.7925 37.7384 25.7636L36.6721 24.964C36.6463 24.9448 36.6166 24.9347 36.5851 24.9347H34.3017V23.186H36.5851C36.9926 23.186 37.3956 23.3206 37.7214 23.565L38.7881 24.3646Z" fill="#002472"></path>
  <path d="M26.8694 24.4975C27.3521 24.4975 27.7438 24.8892 27.7438 25.3719V27.995C27.7438 28.4777 27.3521 28.8694 26.8694 28.8694C26.3868 28.8694 25.995 28.4777 25.995 27.995V25.3719C25.995 24.8892 26.3868 24.4975 26.8694 24.4975Z" fill="#002472"></path>
  <path d="M23.3719 24.4975C23.8546 24.4975 24.2463 24.8892 24.2463 25.3719V27.995C24.2463 28.4777 23.8546 28.8694 23.3719 28.8694C22.8892 28.8694 22.4975 28.4777 22.4975 27.995V25.3719C22.4975 24.8892 22.8892 24.4975 23.3719 24.4975Z" fill="#002472"></path>
  <path d="M31.3856 21.4398L35.176 23.5458V29.8212L31.386 31.9267C30.8675 32.2148 30.2804 32.3669 29.6871 32.3669H22.9347C20.7649 32.3669 19 30.6016 19 28.4322V24.9347C19 22.7654 20.7649 21 22.9347 21H29.6871C30.2804 21 30.8675 21.1521 31.3856 21.4398ZM33.4273 28.792V24.5749L30.5366 22.9687C30.2773 22.8248 29.9835 22.7488 29.6871 22.7488H22.9347C21.7294 22.7488 20.7488 23.7294 20.7488 24.9347V28.4322C20.7488 29.6376 21.7294 30.6182 22.9347 30.6182H29.6871C29.9835 30.6182 30.2773 30.5421 30.5366 30.3983L33.4273 28.792Z" fill="#002472"></path>
</svg>
