<?xml version="1.0" encoding="UTF-8"?>
<svg xmlns="http://www.w3.org/2000/svg" width="20" height="30" viewBox="0 0 20 30" fill="none">
  <path d="M3.4375 30H16.5625C17.3084 30 18.0238 29.7037 18.5512 29.1762C19.0787 28.6488 19.375 27.9334 19.375 27.1875V2.8125C19.375 2.06658 19.0787 1.35121 18.5512 0.823762C18.0238 0.296316 17.3084 0 16.5625 0L3.4375 0C2.69158 0 1.97621 0.296316 1.44876 0.823762C0.921316 1.35121 0.625 2.06658 0.625 2.8125V27.1875C0.625 27.9334 0.921316 28.6488 1.44876 29.1762C1.97621 29.7037 2.69158 30 3.4375 30ZM7.225 1.875H12.775V2.34375H7.225V1.875ZM2.5 2.8125C2.5 2.56386 2.59877 2.3254 2.77459 2.14959C2.9504 1.97377 3.18886 1.875 3.4375 1.875H5.35V3.28125C5.35 3.52989 5.44877 3.76835 5.62459 3.94416C5.8004 4.11998 6.03886 4.21875 6.2875 4.21875H13.7125C13.9611 4.21875 14.1996 4.11998 14.3754 3.94416C14.5512 3.76835 14.65 3.52989 14.65 3.28125V1.875H16.5625C16.8111 1.875 17.0496 1.97377 17.2254 2.14959C17.4012 2.3254 17.5 2.56386 17.5 2.8125V27.1875C17.5 27.4361 17.4012 27.6746 17.2254 27.8504C17.0496 28.0262 16.8111 28.125 16.5625 28.125H3.4375C3.18886 28.125 2.9504 28.0262 2.77459 27.8504C2.59877 27.6746 2.5 27.4361 2.5 27.1875V2.8125Z" fill="#D80027"></path>
  <circle cx="10.0009" cy="25" r="1.66667" fill="#D80027"></circle>
</svg>
