<?xml version="1.0" encoding="UTF-8"?>
<svg xmlns="http://www.w3.org/2000/svg" width="130" height="132" viewBox="0 0 130 132" fill="none">
  <path d="M130 22.7996C129.137 21.9215 128.251 21.0634 127.344 20.226C117.225 10.8913 104.745 4.50137 91.2563 1.74765C77.7673 -1.00608 63.7821 -0.0187726 50.8137 4.60281C49.3136 5.13662 47.9729 6.04141 46.9166 7.23294C45.8604 8.4244 45.1227 9.8638 44.7725 11.4171C44.4223 12.9704 44.4708 14.5871 44.9136 16.1166C44.9297 16.172 44.9462 16.2273 44.9633 16.2823L130 101.319V22.7996Z" fill="white"></path>
  <path d="M130 111.498L75.6547 57.1529L73.1098 69.8767L129.188 125.954C129.71 124.742 130 123.405 130 122V111.498Z" fill="white"></path>
  <path d="M124.153 131.099L66.481 73.427L53.7571 75.9718L109.785 132H120C121.482 132 122.888 131.678 124.153 131.099Z" fill="white"></path>
  <path d="M99.6062 132L11.9158 44.3097L11.8696 44.32C10.3163 44.6702 8.8769 45.4077 7.68544 46.4641C6.49391 47.5204 5.58912 48.861 5.05531 50.3612C0.433727 63.3296 -0.553578 77.3148 2.20021 90.8038C4.95387 104.293 11.3438 116.772 20.6786 126.891C22.3302 128.682 24.0628 130.386 25.8693 132H99.6062Z" fill="white"></path>
</svg>
