<?xml version="1.0" encoding="UTF-8"?>
<svg xmlns="http://www.w3.org/2000/svg" width="61" height="61" viewBox="0 0 61 61" fill="none">
  <rect width="61" height="61" rx="30.5" fill="white"></rect>
  <path d="M29.6154 20C23.7619 20 19 24.7619 19 30.6154C19 36.4689 23.7619 41.2308 29.6154 41.2308C29.6154 40.6124 29.7034 40.0175 29.8538 39.446C29.7733 39.4478 29.6959 39.4615 29.6154 39.4615C24.7376 39.4615 20.7692 35.4932 20.7692 30.6154C20.7692 25.7376 24.7376 21.7692 29.6154 21.7692C33.9774 21.7692 37.6032 24.9459 38.3233 29.1053C39.0284 29.3335 39.666 29.7082 40.2083 30.1904C39.9827 24.535 35.3247 20 29.6154 20ZM28.7308 23.5385V29.7308H24.3077V31.5H30.5V23.5385H28.7308ZM36.6923 30.6154C35.5865 30.6154 34.6446 31.0619 34.0402 31.7419C33.4358 32.4219 33.1538 33.2938 33.1538 34.1538C33.1538 35.0139 33.4358 35.8858 34.0402 36.5658C34.0733 36.603 34.1295 36.6199 34.1646 36.6556C32.5361 37.5644 31.3846 39.2419 31.3846 41.2308H33.1538C33.1538 39.2666 34.7281 37.6923 36.6923 37.6923C38.6565 37.6923 40.2308 39.2666 40.2308 41.2308H42C42 39.2419 40.8485 37.5644 39.22 36.6556C39.2551 36.6199 39.3114 36.603 39.3444 36.5658C39.9489 35.8858 40.2308 35.0139 40.2308 34.1538C40.2308 33.2938 39.9489 32.4219 39.3444 31.7419C38.74 31.0619 37.7981 30.6154 36.6923 30.6154ZM36.6923 32.3846C37.3558 32.3846 37.7408 32.6016 38.021 32.9168C38.3011 33.232 38.4615 33.687 38.4615 34.1538C38.4615 34.6207 38.3011 35.0757 38.021 35.3909C37.7408 35.7061 37.3558 35.9231 36.6923 35.9231C36.0288 35.9231 35.6438 35.7061 35.3637 35.3909C35.0835 35.0757 34.9231 34.6207 34.9231 34.1538C34.9231 33.687 35.0835 33.232 35.3637 32.9168C35.6438 32.6016 36.0288 32.3846 36.6923 32.3846Z" fill="#002472"></path>
</svg>
