<?xml version="1.0" encoding="UTF-8"?>
<svg xmlns="http://www.w3.org/2000/svg" width="54" height="54" viewBox="0 0 54 54" fill="none">
  <g clip-path="url(#clip0_51_3305)">
    <path d="M39.7528 4.33998L39.7692 4.42H39.8508H42.12C42.6617 4.42 43.1 4.85877 43.1 5.4V52.92C43.1 53.4612 42.6617 53.9 42.12 53.9H1.07998C0.538296 53.9 0.0999847 53.4612 0.0999847 52.92V5.4C0.0999847 4.85877 0.538296 4.42 1.07998 4.42H3.34914H3.43081L3.44713 4.33998C3.93967 1.92388 6.08097 0.1 8.63999 0.1C11.199 0.1 13.3403 1.92388 13.8328 4.33997L13.8491 4.42H13.9308H16.3091H16.3908L16.4071 4.33998C16.8997 1.92388 19.041 0.1 21.6 0.1C24.159 0.1 26.3003 1.92388 26.7928 4.33997L26.8091 4.42H26.8908H29.2691H29.3508L29.3671 4.33998C29.8597 1.92388 32.001 0.1 34.56 0.1C37.119 0.1 39.2603 1.92388 39.7528 4.33998ZM37.601 4.42H37.7428L37.6952 4.28642C37.2344 2.99421 36.0105 2.06 34.56 2.06C33.1095 2.06 31.8855 2.99421 31.4248 4.28642L31.3772 4.42H31.519H37.601ZM24.641 4.42H24.7828L24.7352 4.28642C24.2744 2.99421 23.0505 2.06 21.6 2.06C20.1495 2.06 18.9255 2.99421 18.4648 4.28642L18.4172 4.42H18.559H24.641ZM11.681 4.42H11.8228L11.7752 4.28642C11.3144 2.99421 10.0905 2.06 8.63999 2.06C7.18949 2.06 5.96553 2.99421 5.50479 4.28642L5.45717 4.42H5.59899H11.681ZM11.7752 6.51358L11.8228 6.38H11.681H2.15998H2.05998V6.48V12.96V13.06H2.15998H41.04H41.14V12.96V6.48V6.38H41.04H39.8508H39.7692L39.7528 6.46003C39.2603 8.87612 37.119 10.7 34.56 10.7C34.0183 10.7 33.58 10.2612 33.58 9.72C33.58 9.17877 34.0183 8.74 34.56 8.74C36.0105 8.74 37.2344 7.80579 37.6952 6.51358L37.7428 6.38H37.601H26.8908H26.8092L26.7928 6.46003C26.3003 8.87612 24.159 10.7 21.6 10.7C21.0583 10.7 20.62 10.2612 20.62 9.72C20.62 9.17877 21.0583 8.74 21.6 8.74C23.0505 8.74 24.2744 7.80579 24.7352 6.51358L24.7828 6.38H24.641H13.9308H13.8492L13.8328 6.46003C13.3403 8.87612 11.199 10.7 8.63999 10.7C8.0983 10.7 7.65999 10.2612 7.65999 9.72C7.65999 9.17877 8.0983 8.74 8.63999 8.74C10.0905 8.74 11.3144 7.80579 11.7752 6.51358ZM2.05998 51.84V51.94H2.15998H41.04H41.14V51.84V15.12V15.02H41.04H2.15998H2.05998V15.12V51.84Z" fill="white" fill-opacity="0.5" stroke="#002472" stroke-width="0.2"></path>
    <path d="M47.42 45.36V45.46H47.52H51.84H51.94V45.36V19.44V19.34H51.84H47.52H47.42V19.44V45.36ZM47.52 15.02H47.42V15.12V17.28V17.38H47.52H51.84H51.94V17.28V15.12V15.02H51.84H47.52ZM51.84 13.06H51.94V12.96V10.8C51.94 9.55346 50.9259 8.53998 49.68 8.53998C48.434 8.53998 47.42 9.55346 47.42 10.8V12.96V13.06H47.52H51.84ZM49.5905 50.55L49.68 50.7289L49.7694 50.55L51.2621 47.5647L51.3344 47.42H51.1726H48.1873H48.0255L48.0979 47.5647L49.5905 50.55ZM45.46 10.8C45.46 8.47319 47.3527 6.57998 49.68 6.57998C52.0073 6.57998 53.9 8.47319 53.9 10.8V46.44C53.9 46.5922 53.8646 46.7425 53.7966 46.8783L50.5567 53.3582C50.3901 53.6904 50.0513 53.9 49.68 53.9C49.3087 53.9 48.9699 53.6904 48.8033 53.3582L45.5633 46.8783C45.4954 46.7425 45.46 46.5922 45.46 46.44V10.8Z" fill="white" fill-opacity="0.5" stroke="#002472" stroke-width="0.2"></path>
    <path d="M20.52 21.4999H6.47999C5.9383 21.4999 5.49999 21.0612 5.49999 20.5199C5.49999 19.9787 5.9383 19.5399 6.47999 19.5399H20.52C21.0617 19.5399 21.5 19.9787 21.5 20.5199C21.5 21.0612 21.0617 21.4999 20.52 21.4999Z" fill="white" fill-opacity="0.5" stroke="#002472" stroke-width="0.2"></path>
    <path d="M6.47999 23.86H36.72C37.2617 23.86 37.7 24.2988 37.7 24.84C37.7 25.3812 37.2617 25.82 36.72 25.82H6.47999C5.9383 25.82 5.49999 25.3812 5.49999 24.84C5.49999 24.2988 5.9383 23.86 6.47999 23.86Z" fill="white" fill-opacity="0.5" stroke="#002472" stroke-width="0.2"></path>
    <path d="M20.52 32.3H6.47999C5.9383 32.3 5.49999 31.8612 5.49999 31.32C5.49999 30.7788 5.9383 30.34 6.47999 30.34H20.52C21.0617 30.34 21.5 30.7788 21.5 31.32C21.5 31.8612 21.0617 32.3 20.52 32.3Z" fill="white" fill-opacity="0.5" stroke="#002472" stroke-width="0.2"></path>
    <path d="M6.47999 34.6601H36.72C37.2617 34.6601 37.7 35.0988 37.7 35.6401C37.7 36.1813 37.2617 36.6201 36.72 36.6201H6.47999C5.9383 36.6201 5.49999 36.1813 5.49999 35.6401C5.49999 35.0988 5.9383 34.6601 6.47999 34.6601Z" fill="white" fill-opacity="0.5" stroke="#002472" stroke-width="0.2"></path>
    <path d="M20.52 43.1H6.47999C5.9383 43.1 5.49999 42.6613 5.49999 42.12C5.49999 41.5788 5.9383 41.14 6.47999 41.14H20.52C21.0617 41.14 21.5 41.5788 21.5 42.12C21.5 42.6613 21.0617 43.1 20.52 43.1Z" fill="white" fill-opacity="0.5" stroke="#002472" stroke-width="0.2"></path>
    <path d="M6.47999 45.4601H36.72C37.2617 45.4601 37.7 45.8989 37.7 46.4401C37.7 46.9813 37.2617 47.4201 36.72 47.4201H6.47999C5.9383 47.4201 5.49999 46.9813 5.49999 46.4401C5.49999 45.8989 5.9383 45.4601 6.47999 45.4601Z" fill="white" fill-opacity="0.5" stroke="#002472" stroke-width="0.2"></path>
  </g>
  <defs>
    <clipPath id="clip0_51_3305">
      <rect width="54" height="54" fill="white"></rect>
    </clipPath>
  </defs>
</svg>
