<?xml version="1.0" encoding="UTF-8"?>
<svg xmlns="http://www.w3.org/2000/svg" width="221" height="57" viewBox="0 0 221 57" fill="none">
  <path d="M67.0854 25.2115L74.32 9.75577H77.4989L84.7335 25.2115H80.6996L79.3623 22.0765H72.4566L71.1192 25.2115H67.0854ZM75.8766 13.965L73.7719 18.9854H78.025L75.9204 13.965H75.8766Z" fill="#002472"></path>
  <path d="M88.958 25.2115V9.75577H96.3899C98.1437 9.75577 99.4957 10.2088 100.446 11.115C101.41 12.0065 101.893 13.2415 101.893 14.82C101.893 16.3985 101.41 17.6408 100.446 18.5469C99.4957 19.4385 98.1437 19.8842 96.3899 19.8842H92.9918V25.2115H88.958ZM92.9918 16.7931H95.6883C97.2668 16.7931 98.056 16.1354 98.056 14.82C98.056 13.5046 97.2668 12.8469 95.6883 12.8469H92.9918V16.7931Z" fill="#002472"></path>
  <path d="M107.062 25.2115V9.75577H114.494C116.247 9.75577 117.599 10.2088 118.549 11.115C119.514 12.0065 119.996 13.2415 119.996 14.82C119.996 16.3985 119.514 17.6408 118.549 18.5469C117.599 19.4385 116.247 19.8842 114.494 19.8842H111.095V25.2115H107.062ZM111.095 16.7931H113.792C115.37 16.7931 116.16 16.1354 116.16 14.82C116.16 13.5046 115.37 12.8469 113.792 12.8469H111.095V16.7931Z" fill="#002472"></path>
  <path d="M125.165 25.2115V9.75577H129.199V21.8573H136.083V25.2115H125.165Z" fill="#002472"></path>
  <path d="M141.278 25.2115V9.75577H145.312V25.2115H141.278Z" fill="#002472"></path>
  <path d="M149.532 25.2115L156.767 9.75577H159.946L167.181 25.2115H163.147L161.809 22.0765H154.904L153.566 25.2115H149.532ZM158.324 13.965L156.219 18.9854H160.472L158.367 13.965H158.324Z" fill="#002472"></path>
  <path d="M171.405 25.2115V9.75577H174.365L181.468 18.6127V9.75577H185.195V25.2115H182.257L175.154 16.3546V25.2115H171.405Z" fill="#002472"></path>
  <path d="M199.112 25.4527C197.402 25.4527 195.933 25.1238 194.705 24.4662C193.477 23.8085 192.535 22.8804 191.877 21.6819C191.234 20.4835 190.912 19.0804 190.912 17.4727C190.912 15.865 191.234 14.4692 191.877 13.2854C192.535 12.0869 193.477 11.1588 194.705 10.5012C195.933 9.84346 197.402 9.51462 199.112 9.51462C200.135 9.51462 201.121 9.67539 202.071 9.99693C203.021 10.3038 203.789 10.7131 204.373 11.2246L203.167 14.4035C202.524 13.9358 201.881 13.5923 201.238 13.3731C200.595 13.1392 199.937 13.0223 199.265 13.0223C197.906 13.0223 196.883 13.4096 196.196 14.1842C195.509 14.9442 195.166 16.0404 195.166 17.4727C195.166 18.9196 195.509 20.0304 196.196 20.805C196.883 21.565 197.906 21.945 199.265 21.945C199.937 21.945 200.595 21.8354 201.238 21.6162C201.881 21.3823 202.524 21.0315 203.167 20.5638L204.373 23.7427C203.789 24.2542 203.021 24.6708 202.071 24.9923C201.121 25.2992 200.135 25.4527 199.112 25.4527Z" fill="#002472"></path>
  <path d="M209.646 25.2115V9.75577H220.564V12.8688H213.505V15.8065H220.06V18.9196H213.505V22.0985H220.564V25.2115H209.646Z" fill="#002472"></path>
  <path d="M66.8321 47.1346V32.4516H73.5384C75.1768 32.4516 76.4403 32.8474 77.3289 33.6388C78.2175 34.4302 78.6618 35.534 78.6618 36.9503C78.6618 38.0471 78.3772 38.9635 77.8079 39.6994C77.2526 40.4214 76.4542 40.9143 75.4128 41.1781C76.1487 41.4003 76.7527 41.9348 77.2248 42.7818L79.599 47.1346H76.0376L73.4968 42.4486C73.2885 42.0737 73.0316 41.8168 72.7262 41.678C72.4207 41.5252 72.0597 41.4489 71.6432 41.4489H70.0603V47.1346H66.8321ZM70.0603 39.1163H72.9553C74.6908 39.1163 75.5586 38.422 75.5586 37.0336C75.5586 35.659 74.6908 34.9717 72.9553 34.9717H70.0603V39.1163Z" fill="#D80027"></path>
  <path d="M81.3337 47.1346V32.4516H91.3931V34.9717H84.4161V38.4081H90.9349V40.949H84.4161V44.6146H91.3931V47.1346H81.3337Z" fill="#D80027"></path>
  <path d="M93.9438 47.1346V32.4516H100.65C102.288 32.4516 103.552 32.8682 104.441 33.7013C105.329 34.5204 105.773 35.6659 105.773 37.1377C105.773 38.6095 105.329 39.7619 104.441 40.595C103.552 41.428 102.288 41.8446 100.65 41.8446H97.1719V47.1346H93.9438ZM97.1719 39.3454H100.109C101.816 39.3454 102.67 38.6095 102.67 37.1377C102.67 35.6937 101.816 34.9717 100.109 34.9717H97.1719V39.3454Z" fill="#D80027"></path>
  <path d="M104.541 47.1346L111.289 32.4516H113.893L120.641 47.1346H117.392L116.017 43.9481H109.165L107.811 47.1346H104.541ZM112.56 35.8881L110.248 41.428H114.955L112.601 35.8881H112.56Z" fill="#D80027"></path>
  <path d="M121.91 47.1346V32.4516H125.138V47.1346H121.91Z" fill="#D80027"></path>
  <path d="M128.072 47.1346V32.4516H134.779C136.417 32.4516 137.68 32.8474 138.569 33.6388C139.458 34.4302 139.902 35.534 139.902 36.9503C139.902 38.0471 139.617 38.9635 139.048 39.6994C138.493 40.4214 137.694 40.9143 136.653 41.1781C137.389 41.4003 137.993 41.9348 138.465 42.7818L140.839 47.1346H137.278L134.737 42.4486C134.529 42.0737 134.272 41.8168 133.966 41.678C133.661 41.5252 133.3 41.4489 132.883 41.4489H131.3V47.1346H128.072ZM131.3 39.1163H134.195C135.931 39.1163 136.799 38.422 136.799 37.0336C136.799 35.659 135.931 34.9717 134.195 34.9717H131.3V39.1163Z" fill="#D80027"></path>
  <path d="M155.41 47.3221C153.049 47.3221 151.251 46.6556 150.016 45.3227C148.78 43.9898 148.162 42.15 148.162 39.8035C148.162 38.2485 148.44 36.9086 148.995 35.7839C149.551 34.6593 150.349 33.7915 151.39 33.1806C152.432 32.5697 153.688 32.2642 155.16 32.2642C156.201 32.2642 157.159 32.4239 158.034 32.7432C158.909 33.0487 159.652 33.4999 160.263 34.097L159.596 35.4715C158.93 34.8884 158.242 34.4649 157.534 34.2011C156.826 33.9373 156.028 33.8054 155.139 33.8054C153.473 33.8054 152.196 34.333 151.307 35.3882C150.418 36.4296 149.974 37.9014 149.974 39.8035C149.974 41.7474 150.432 43.233 151.349 44.2605C152.265 45.288 153.633 45.8017 155.452 45.8017C156.632 45.8017 157.763 45.6004 158.846 45.1977V40.8449H155.118V39.4911H160.325V46.2807C159.936 46.489 159.464 46.6695 158.909 46.8222C158.367 46.975 157.791 47.093 157.18 47.1763C156.569 47.2735 155.979 47.3221 155.41 47.3221Z" fill="#D80027"></path>
  <path d="M163.815 47.1346V32.4516H169.626C171.209 32.4516 172.417 32.8196 173.25 33.5555C174.097 34.2914 174.52 35.3396 174.52 36.7003C174.52 37.7833 174.222 38.6719 173.625 39.3662C173.042 40.0604 172.209 40.5117 171.126 40.7199C171.764 40.9421 172.313 41.4836 172.771 42.3444L175.353 47.1346H173.479L170.938 42.4277C170.619 41.8446 170.251 41.4489 169.834 41.2406C169.418 41.0323 168.869 40.9282 168.189 40.9282H165.523V47.1346H163.815ZM165.523 39.5745H169.376C171.681 39.5745 172.833 38.6164 172.833 36.7003C172.833 34.812 171.681 33.8679 169.376 33.8679H165.523V39.5745Z" fill="#D80027"></path>
  <path d="M183.81 47.3221C182.45 47.3221 181.263 47.0166 180.249 46.4057C179.249 45.7809 178.472 44.9061 177.916 43.7815C177.375 42.6568 177.104 41.3239 177.104 39.7827C177.104 38.2415 177.375 36.9086 177.916 35.7839C178.458 34.6593 179.229 33.7915 180.228 33.1806C181.242 32.5697 182.436 32.2642 183.81 32.2642C185.199 32.2642 186.393 32.5697 187.393 33.1806C188.406 33.7915 189.184 34.6593 189.725 35.7839C190.281 36.8947 190.558 38.2207 190.558 39.7619C190.558 41.3031 190.281 42.643 189.725 43.7815C189.17 44.9061 188.385 45.7809 187.372 46.4057C186.372 47.0166 185.185 47.3221 183.81 47.3221ZM183.81 45.8017C185.379 45.8017 186.594 45.2741 187.455 44.2189C188.316 43.1636 188.746 41.6849 188.746 39.7827C188.746 37.8805 188.316 36.4088 187.455 35.3674C186.594 34.3122 185.379 33.7846 183.81 33.7846C182.269 33.7846 181.068 34.3122 180.207 35.3674C179.347 36.4088 178.916 37.8805 178.916 39.7827C178.916 41.671 179.347 43.1497 180.207 44.2189C181.068 45.2741 182.269 45.8017 183.81 45.8017Z" fill="#D80027"></path>
  <path d="M199.402 47.3221C197.472 47.3221 196.007 46.8153 195.007 45.8017C194.007 44.7742 193.508 43.2816 193.508 41.3239V32.4516H195.215V41.2406C195.215 44.2813 196.611 45.8017 199.402 45.8017C202.165 45.8017 203.546 44.2813 203.546 41.2406V32.4516H205.254V41.3239C205.254 43.2816 204.754 44.7742 203.754 45.8017C202.769 46.8153 201.318 47.3221 199.402 47.3221Z" fill="#D80027"></path>
  <path d="M208.764 47.1346V32.4516H214.575C216.158 32.4516 217.366 32.8335 218.199 33.5971C219.046 34.3608 219.469 35.4507 219.469 36.8669C219.469 38.2693 219.046 39.3592 218.199 40.1368C217.366 40.9004 216.158 41.2823 214.575 41.2823H210.472V47.1346H208.764ZM210.472 39.8452H214.366C216.644 39.8452 217.782 38.8524 217.782 36.8669C217.782 34.8676 216.644 33.8679 214.366 33.8679H210.472V39.8452Z" fill="#D80027"></path>
  <path d="M56.4519 33.9808C53.8967 47.0986 42.3654 57 28.5 57C12.7599 57 0 44.2401 0 28.5C0 12.7599 12.7599 0 28.5 0C40.3558 0 50.5208 7.23921 54.8158 17.5385H40.7556C37.7449 14.1746 33.3697 12.0577 28.5 12.0577C19.4192 12.0577 12.0577 19.4192 12.0577 28.5C12.0577 37.5808 19.4192 44.9423 28.5 44.9423C35.6591 44.9423 41.589 40.3669 43.8462 33.9808H56.4519Z" fill="url(#paint0_linear_3_158)"></path>
  <g clip-path="url(#clip0_3_158)">
    <path d="M16.3811 42.9096L14.3593 42.6008L13.453 40.6704C13.3854 40.5263 13.1489 40.5263 13.0812 40.6704L12.1752 42.6008L10.1533 42.9096C9.98727 42.9351 9.92096 43.1371 10.0374 43.2563L11.5063 44.7618L11.1591 46.8903C11.1314 47.0594 11.312 47.1862 11.4613 47.1032L13.2672 46.1052L15.0732 47.1035C15.2211 47.1857 15.4034 47.0613 15.3754 46.8906L15.0282 44.7621L16.4971 43.2565C16.6135 43.1371 16.5469 42.9351 16.3811 42.9096Z" fill="white"></path>
  </g>
  <g clip-path="url(#clip1_3_158)">
    <path d="M48.0562 42.9096L46.0344 42.6008L45.1281 40.6704C45.0604 40.5263 44.8239 40.5263 44.7562 40.6704L43.8503 42.6008L41.8284 42.9096C41.6623 42.9351 41.596 43.1371 41.7125 43.2563L43.1813 44.7618L42.8341 46.8903C42.8065 47.0594 42.9871 47.1862 43.1364 47.1032L44.9423 46.1052L46.7482 47.1035C46.8962 47.1857 47.0784 47.0613 47.0505 46.8906L46.7033 44.7621L48.1721 43.2565C48.2886 43.1371 48.222 42.9351 48.0562 42.9096Z" fill="white"></path>
  </g>
  <g clip-path="url(#clip2_3_158)">
    <path d="M32.7101 49.4865L30.6882 49.1777L29.782 47.2473C29.7143 47.1032 29.4778 47.1032 29.4101 47.2473L28.5041 49.1777L26.4823 49.4865C26.3162 49.512 26.2499 49.7139 26.3663 49.8332L27.8352 51.3387L27.488 53.4672C27.4603 53.6363 27.6409 53.7631 27.7903 53.6801L29.5962 52.6821L31.4021 53.6804C31.5501 53.7626 31.7323 53.6382 31.7043 53.4675L31.3571 51.339L32.826 49.8334C32.9424 49.7139 32.8759 49.512 32.7101 49.4865Z" fill="white"></path>
  </g>
  <path fill-rule="evenodd" clip-rule="evenodd" d="M56.4519 33.9992H39.1168C38.0684 35.8149 36.5434 37.3093 34.7069 38.3208C32.8704 39.3322 30.7922 39.8222 28.6973 39.7377C26.6024 39.6533 24.5704 38.9975 22.8213 37.8415C21.0722 36.6854 19.6725 35.0731 18.7736 33.1789C18.6696 32.9599 18.6226 32.7181 18.6372 32.476C18.6518 32.234 18.7273 31.9995 18.8569 31.7945L18.8608 31.7884H56.4519V33.9992ZM56.4519 30.6923H26.7761L27.8722 29.0481H56.4519V30.6923ZM27.1076 26.3077L28.2037 27.9519H56.4519V26.3077H27.1076ZM19.4013 25.2115C19.3936 25.2074 19.3858 25.2033 19.3782 25.199C19.1658 25.082 18.9864 24.9132 18.8569 24.7082C18.7273 24.5032 18.6518 24.2688 18.6372 24.0267C18.6226 23.7846 18.6696 23.5428 18.7736 23.3238C19.6725 21.4296 21.0722 19.8173 22.8213 18.6612C24.5704 17.5052 26.6024 16.8494 28.6973 16.765C30.7922 16.6805 32.8704 17.1705 34.7069 18.182C36.5434 19.1934 38.3654 20.2789 39.4615 23.0192H56.4519V25.2115H19.4013Z" fill="#D80027"></path>
  <defs>
    <linearGradient id="paint0_linear_3_158" x1="0" y1="0" x2="35.625" y2="44.3942" gradientUnits="userSpaceOnUse">
      <stop stop-color="#002472"></stop>
      <stop offset="1" stop-color="#1E1D50"></stop>
    </linearGradient>
    <clipPath id="clip0_3_158">
      <rect width="6.57692" height="6.57692" fill="white" transform="translate(9.97878 40.5577)"></rect>
    </clipPath>
    <clipPath id="clip1_3_158">
      <rect width="6.57692" height="6.57692" fill="white" transform="translate(41.6539 40.5577)"></rect>
    </clipPath>
    <clipPath id="clip2_3_158">
      <rect width="6.57692" height="6.57692" fill="white" transform="translate(26.3077 47.1346)"></rect>
    </clipPath>
  </defs>
</svg>
