<?xml version="1.0" encoding="UTF-8"?>
<svg xmlns="http://www.w3.org/2000/svg" width="61" height="61" viewBox="0 0 61 61" fill="none">
  <rect width="61" height="61" rx="30.5" fill="white"></rect>
  <path d="M25.4345 41.4526H35.0179C35.5625 41.4526 36.0848 41.2363 36.47 40.8511C36.8551 40.466 37.0714 39.9437 37.0714 39.399V21.6014C37.0714 21.0568 36.8551 20.5344 36.47 20.1493C36.0848 19.7642 35.5625 19.5479 35.0179 19.5479H25.4345C24.8899 19.5479 24.3675 19.7642 23.9824 20.1493C23.5973 20.5344 23.381 21.0568 23.381 21.6014V39.399C23.381 39.9437 23.5973 40.466 23.9824 40.8511C24.3675 41.2363 24.8899 41.4526 25.4345 41.4526ZM28.2 20.9169H32.2524V21.2592H28.2V20.9169ZM24.75 21.6014C24.75 21.4199 24.8221 21.2458 24.9505 21.1174C25.0789 20.989 25.253 20.9169 25.4345 20.9169H26.831V21.9437C26.831 22.1252 26.9031 22.2993 27.0314 22.4277C27.1598 22.5561 27.3339 22.6282 27.5155 22.6282H32.9369C33.1184 22.6282 33.2926 22.5561 33.4209 22.4277C33.5493 22.2993 33.6214 22.1252 33.6214 21.9437V20.9169H35.0179C35.1994 20.9169 35.3735 20.989 35.5019 21.1174C35.6303 21.2458 35.7024 21.4199 35.7024 21.6014V39.399C35.7024 39.5806 35.6303 39.7547 35.5019 39.8831C35.3735 40.0114 35.1994 40.0836 35.0179 40.0836H25.4345C25.253 40.0836 25.0789 40.0114 24.9505 39.8831C24.8221 39.7547 24.75 39.5806 24.75 39.399V21.6014Z" fill="#002472"></path>
  <path d="M31.4438 37.802C31.4438 38.4741 30.899 39.0189 30.2269 39.0189C29.5548 39.0189 29.0099 38.4741 29.0099 37.802C29.0099 37.1299 29.5548 36.5851 30.2269 36.5851C30.899 36.5851 31.4438 37.1299 31.4438 37.802Z" fill="#002472"></path>
  <path d="M25.4345 41.4526H35.0179C35.5625 41.4526 36.0848 41.2363 36.47 40.8511C36.8551 40.466 37.0714 39.9437 37.0714 39.399V21.6014C37.0714 21.0568 36.8551 20.5344 36.47 20.1493C36.0848 19.7642 35.5625 19.5479 35.0179 19.5479H25.4345C24.8899 19.5479 24.3675 19.7642 23.9824 20.1493C23.5973 20.5344 23.381 21.0568 23.381 21.6014V39.399C23.381 39.9437 23.5973 40.466 23.9824 40.8511C24.3675 41.2363 24.8899 41.4526 25.4345 41.4526ZM28.2 20.9169H32.2524V21.2592H28.2V20.9169ZM24.75 21.6014C24.75 21.4199 24.8221 21.2458 24.9505 21.1174C25.0789 20.989 25.253 20.9169 25.4345 20.9169H26.831V21.9437C26.831 22.1252 26.9031 22.2993 27.0314 22.4277C27.1598 22.5561 27.3339 22.6282 27.5155 22.6282H32.9369C33.1184 22.6282 33.2926 22.5561 33.4209 22.4277C33.5493 22.2993 33.6214 22.1252 33.6214 21.9437V20.9169H35.0179C35.1994 20.9169 35.3735 20.989 35.5019 21.1174C35.6303 21.2458 35.7024 21.4199 35.7024 21.6014V39.399C35.7024 39.5806 35.6303 39.7547 35.5019 39.8831C35.3735 40.0114 35.1994 40.0836 35.0179 40.0836H25.4345C25.253 40.0836 25.0789 40.0114 24.9505 39.8831C24.8221 39.7547 24.75 39.5806 24.75 39.399V21.6014Z" stroke="#002472" stroke-width="0.4"></path>
  <path d="M31.4438 37.802C31.4438 38.4741 30.899 39.0189 30.2269 39.0189C29.5548 39.0189 29.0099 38.4741 29.0099 37.802C29.0099 37.1299 29.5548 36.5851 30.2269 36.5851C30.899 36.5851 31.4438 37.1299 31.4438 37.802Z" stroke="#002472" stroke-width="0.4"></path>
</svg>
