<?xml version="1.0" encoding="UTF-8"?>
<svg xmlns="http://www.w3.org/2000/svg" width="27" height="19" viewBox="0 0 27 19" fill="none">
  <rect y="0.153839" width="27" height="17.8543" rx="1" fill="#D9D9D9"></rect>
  <path d="M0 1.15384C0 0.601553 0.447715 0.153839 1 0.153839H26C26.5523 0.153839 27 0.601554 27 1.15384V18C27 18.5523 26.5523 19 26 19H0.999999C0.447715 19 0 18.5523 0 18V1.15384Z" fill="#F0F0F0"></path>
  <rect y="16.0243" width="27" height="1.98381" fill="#D80027"></rect>
  <rect y="12.0567" width="27" height="1.98381" fill="#D80027"></rect>
  <rect y="8.08907" width="27" height="1.98381" fill="#D80027"></rect>
  <rect y="4.12146" width="27" height="1.98381" fill="#D80027"></rect>
  <path d="M0 1.13764C0 0.594304 0.440465 0.153839 0.983806 0.153839H26.0162C26.5595 0.153839 27 0.594304 27 1.13764V2.13765H0V1.13764Z" fill="#D80027"></path>
  <path d="M0 1.15384C0 0.601554 0.447715 0.153839 1 0.153839H13.5V10.0729H0V1.15384Z" fill="#002472"></path>
  <path d="M5.15163 3.977L4.91776 4.71708H4.1613L4.7734 5.17423L4.53953 5.91426L5.15163 5.4571L5.76334 5.91426L5.52952 5.17423L6.14162 4.71708H5.38511L5.15163 3.977Z" fill="#F0F0F0"></path>
  <path d="M5.38511 7.38778L5.15163 6.64775L4.91776 7.38778H4.1613L4.7734 7.84499L4.53953 8.58502L5.15163 8.1278L5.76334 8.58502L5.52952 7.84499L6.14162 7.38778H5.38511Z" fill="#F0F0F0"></path>
  <path d="M2.18816 7.38778L1.95463 6.64775L1.72076 7.38778H0.964302L1.5764 7.84499L1.34253 8.58502L1.95463 8.1278L2.56639 8.58502L2.33258 7.84499L2.94457 7.38778H2.18816Z" fill="#F0F0F0"></path>
  <path d="M1.95463 3.977L1.72076 4.71708H0.964302L1.5764 5.17423L1.34253 5.91426L1.95463 5.4571L2.56639 5.91426L2.33258 5.17423L2.94457 4.71708H2.18816L1.95463 3.977Z" fill="#F0F0F0"></path>
  <path d="M5.15163 1.30618L4.91776 2.04632H4.1613L4.7734 2.50354L4.53953 3.24356L5.15163 2.78635L5.76334 3.24356L5.52952 2.50354L6.14162 2.04632H5.38511L5.15163 1.30618Z" fill="#F0F0F0"></path>
  <path d="M1.95463 1.30618L1.72076 2.04632H0.964302L1.5764 2.50354L1.34253 3.24356L1.95463 2.78635L2.56639 3.24356L2.33258 2.50354L2.94457 2.04632H2.18816L1.95463 1.30618Z" fill="#F0F0F0"></path>
  <path d="M8.34864 3.977L8.11483 4.71708H7.35837L7.97041 5.17423L7.73665 5.91426L8.34864 5.4571L8.96046 5.91426L8.72659 5.17423L9.33869 4.71708H8.58223L8.34864 3.977Z" fill="#F0F0F0"></path>
  <path d="M8.58223 7.38778L8.34864 6.64775L8.11483 7.38778H7.35837L7.97041 7.84499L7.73665 8.58502L8.34864 8.1278L8.96046 8.58502L8.72659 7.84499L9.33869 7.38778H8.58223Z" fill="#F0F0F0"></path>
  <path d="M11.7793 7.38778L11.5458 6.64775L11.3119 7.38778H10.5555L11.1675 7.84499L10.9337 8.58502L11.5458 8.1278L12.1575 8.58502L11.9237 7.84499L12.5358 7.38778H11.7793Z" fill="#F0F0F0"></path>
  <path d="M11.5458 3.977L11.3119 4.71708H10.5555L11.1675 5.17423L10.9337 5.91426L11.5458 5.4571L12.1575 5.91426L11.9237 5.17423L12.5358 4.71708H11.7793L11.5458 3.977Z" fill="#F0F0F0"></path>
  <path d="M8.34864 1.30618L8.11483 2.04632H7.35837L7.97041 2.50354L7.73665 3.24356L8.34864 2.78635L8.96046 3.24356L8.72659 2.50354L9.33869 2.04632H8.58223L8.34864 1.30618Z" fill="#F0F0F0"></path>
  <path d="M11.5458 1.30618L11.3119 2.04632H10.5555L11.1675 2.50354L10.9337 3.24356L11.5458 2.78635L12.1575 3.24356L11.9237 2.50354L12.5358 2.04632H11.7793L11.5458 1.30618Z" fill="#F0F0F0"></path>
</svg>
